<svg viewBox="0 0 40 40" fill="none" xmlns="http://www.w3.org/2000/svg">
<path d="M38.8747 20.2729C38.9468 20.0986 38.9468 19.9022 38.8747 19.7272C38.8383 19.6394 38.7854 19.5601 38.7197 19.4936L30.149 10.9236C29.8697 10.6444 29.4183 10.6444 29.139 10.9236C28.8597 11.2029 28.8597 11.6544 29.139 11.9336L36.4911 19.2858H14.644C14.2497 19.2858 13.9297 19.6051 13.9297 20.0001C13.9297 20.3951 14.2497 20.7144 14.644 20.7144H36.4911L29.139 28.0665C28.8597 28.3458 28.8597 28.7972 29.139 29.0765C29.2783 29.2158 29.4611 29.2858 29.644 29.2858C29.8268 29.2858 30.0097 29.2158 30.149 29.0765L38.7197 20.5058C38.7854 20.4401 38.8383 20.3608 38.8747 20.2729Z" fill="white"/>
<path d="M11.7865 20C11.7865 18.4221 13.0658 17.1429 14.6437 17.1429H26.7866V0.714286C26.7866 0.319286 26.4665 0 26.0723 0H1.78655C1.39227 0 1.07227 0.319286 1.07227 0.714286V39.2857C1.07227 39.6807 1.39227 40 1.78655 40H26.0723C26.4665 40 26.7866 39.6807 26.7866 39.2857V22.8571H14.6437C13.0658 22.8571 11.7865 21.5779 11.7865 20Z" fill="white"/>
</svg>
