<svg viewBox="0 0 30 30" fill="none" xmlns="http://www.w3.org/2000/svg">
<g clip-path="url(#clip0_981_51)">
<path d="M24.6833 13.3183H16.6667C16.65 12.2517 16.65 11.2017 16.6667 10.1183V9.885C16.7 8.60166 16.7333 7.85166 17.2667 7.335C17.7673 6.95824 18.3736 6.74835 19 6.735L19.25 6.71833C19.9971 6.73317 20.7361 6.56131 21.4 6.21833C21.8463 5.95847 22.2328 5.60745 22.5343 5.18818C22.8359 4.76891 23.0457 4.29079 23.15 3.785C23.3115 3.06919 23.3621 2.33283 23.3 1.60166C23.2845 1.15964 23.0941 0.74186 22.7706 0.440239C22.4471 0.138618 22.017 -0.0221397 21.575 -0.00666878C21.133 0.00880218 20.7152 0.199234 20.4136 0.522734C20.112 0.846235 19.9512 1.2763 19.9667 1.71833C20.0033 2.14098 19.9865 2.56656 19.9167 2.985C19.8955 3.10697 19.8439 3.22162 19.7667 3.31833C19.5426 3.37095 19.3135 3.39889 19.0833 3.40166L18.7833 3.41833C17.3669 3.45685 16.0094 3.99393 14.95 4.935C14.3547 5.59412 13.9034 6.3702 13.625 7.21364C13.3466 8.05708 13.2473 8.94932 13.3333 9.83333V10.05C13.3167 11.15 13.3167 12.2333 13.3333 13.3167H5.31667C3.90834 13.3232 2.55959 13.8857 1.5639 14.8817C0.568201 15.8777 0.00613653 17.2267 0 18.635L0 24.6667C0.00657462 26.0747 0.568833 27.4232 1.56448 28.4189C2.56013 29.4145 3.90862 29.9768 5.31667 29.9833H24.6833C26.0914 29.9768 27.4399 29.4145 28.4355 28.4189C29.4312 27.4232 29.9934 26.0747 30 24.6667V18.6333C29.993 17.2256 29.4305 15.8775 28.4349 14.8822C27.4393 13.8869 26.0911 13.3249 24.6833 13.3183ZM11.6667 23.3183H10V24.985C10 25.427 9.8244 25.8509 9.51184 26.1635C9.19928 26.4761 8.77536 26.6517 8.33333 26.6517C7.89131 26.6517 7.46738 26.4761 7.15482 26.1635C6.84226 25.8509 6.66667 25.427 6.66667 24.985V23.3183H5C4.55797 23.3183 4.13405 23.1427 3.82149 22.8302C3.50893 22.5176 3.33333 22.0937 3.33333 21.6517C3.33333 21.2096 3.50893 20.7857 3.82149 20.4732C4.13405 20.1606 4.55797 19.985 5 19.985H6.66667V18.3183C6.66667 17.8763 6.84226 17.4524 7.15482 17.1398C7.46738 16.8273 7.89131 16.6517 8.33333 16.6517C8.77536 16.6517 9.19928 16.8273 9.51184 17.1398C9.8244 17.4524 10 17.8763 10 18.3183V19.985H11.6667C12.1087 19.985 12.5326 20.1606 12.8452 20.4732C13.1577 20.7857 13.3333 21.2096 13.3333 21.6517C13.3333 22.0937 13.1577 22.5176 12.8452 22.8302C12.5326 23.1427 12.1087 23.3183 11.6667 23.3183ZM18.3333 26.6517C18.0037 26.6517 17.6815 26.5539 17.4074 26.3708C17.1333 26.1876 16.9197 25.9273 16.7935 25.6228C16.6674 25.3183 16.6344 24.9831 16.6987 24.6598C16.763 24.3365 16.9217 24.0396 17.1548 23.8065C17.3879 23.5734 17.6849 23.4147 18.0082 23.3504C18.3315 23.286 18.6666 23.3191 18.9711 23.4452C19.2757 23.5713 19.536 23.785 19.7191 24.059C19.9023 24.3331 20 24.6554 20 24.985C20 25.427 19.8244 25.8509 19.5118 26.1635C19.1993 26.4761 18.7754 26.6517 18.3333 26.6517ZM18.3333 19.985C18.0037 19.985 17.6815 19.8872 17.4074 19.7041C17.1333 19.521 16.9197 19.2607 16.7935 18.9561C16.6674 18.6516 16.6344 18.3165 16.6987 17.9932C16.763 17.6699 16.9217 17.3729 17.1548 17.1398C17.3879 16.9067 17.6849 16.748 18.0082 16.6837C18.3315 16.6194 18.6666 16.6524 18.9711 16.7785C19.2757 16.9047 19.536 17.1183 19.7191 17.3924C19.9023 17.6665 20 17.9887 20 18.3183C20 18.7604 19.8244 19.1843 19.5118 19.4968C19.1993 19.8094 18.7754 19.985 18.3333 19.985ZM25 26.6517C24.6704 26.6517 24.3481 26.5539 24.074 26.3708C23.8 26.1876 23.5863 25.9273 23.4602 25.6228C23.3341 25.3183 23.301 24.9831 23.3654 24.6598C23.4297 24.3365 23.5884 24.0396 23.8215 23.8065C24.0546 23.5734 24.3515 23.4147 24.6748 23.3504C24.9981 23.286 25.3333 23.3191 25.6378 23.4452C25.9423 23.5713 26.2026 23.785 26.3858 24.059C26.5689 24.3331 26.6667 24.6554 26.6667 24.985C26.6667 25.427 26.4911 25.8509 26.1785 26.1635C25.8659 26.4761 25.442 26.6517 25 26.6517ZM25 19.985C24.6704 19.985 24.3481 19.8872 24.074 19.7041C23.8 19.521 23.5863 19.2607 23.4602 18.9561C23.3341 18.6516 23.301 18.3165 23.3654 17.9932C23.4297 17.6699 23.5884 17.3729 23.8215 17.1398C24.0546 16.9067 24.3515 16.748 24.6748 16.6837C24.9981 16.6194 25.3333 16.6524 25.6378 16.7785C25.9423 16.9047 26.2026 17.1183 26.3858 17.3924C26.5689 17.6665 26.6667 17.9887 26.6667 18.3183C26.6667 18.7604 26.4911 19.1843 26.1785 19.4968C25.8659 19.8094 25.442 19.985 25 19.985Z" fill="white"/>
</g>
<defs>
<clipPath id="clip0_981_51">
<rect width="30" height="30" fill="white"/>
</clipPath>
</defs>
</svg>
