<svg viewBox="0 0 40 40" fill="none" xmlns="http://www.w3.org/2000/svg">
<path d="M12.8894 34.615C10.364 35.8433 7.56667 36.4061 4.76273 36.25C4.28773 36.25 3.7894 36.24 3.2844 36.22C3.05463 36.213 2.83138 36.1419 2.63993 36.0147C2.44848 35.8874 2.29646 35.7091 2.20107 35.5C2.10174 35.2929 2.06237 35.0622 2.08741 34.8339C2.11245 34.6057 2.20089 34.3889 2.34273 34.2083C3.89252 32.3485 5.06544 30.2047 5.79607 27.8967C4.06281 24.7798 3.40293 21.1794 3.91817 17.6504C4.4334 14.1215 6.09514 10.86 8.64718 8.36884C11.1992 5.87766 14.4998 4.29511 18.0402 3.86519C21.5805 3.43526 25.164 4.18183 28.2381 5.98979C31.3122 7.79775 33.7063 10.5667 35.0512 13.8698C36.396 17.1728 36.6171 20.8265 35.6802 24.2676C34.7433 27.7087 32.7006 30.7461 29.8668 32.9115C27.0331 35.0769 23.5658 36.25 19.9994 36.25C17.5355 36.2562 15.1031 35.6968 12.8894 34.615ZM13.4277 32.0833C16.3516 33.6738 19.7532 34.1494 23.0011 33.4216C26.2491 32.6939 29.1226 30.8123 31.0881 28.1262C33.0537 25.4401 33.9779 22.132 33.689 18.8161C33.4001 15.5003 31.9177 12.4019 29.5172 10.0962C27.1167 7.7905 23.9611 6.43421 20.6363 6.27911C17.3115 6.12402 14.0433 7.18066 11.4386 9.25285C8.83387 11.325 7.06956 14.272 6.47323 17.5466C5.8769 20.8212 6.48907 24.2009 8.19607 27.0583C8.35672 27.326 8.41142 27.6441 8.3494 27.95C7.85301 30.024 6.97041 31.986 5.74773 33.7333C7.97311 33.8075 10.1752 33.261 12.1077 32.155C12.3179 32.0069 12.5689 31.9277 12.8261 31.9283C13.0364 31.929 13.2433 31.9823 13.4277 32.0833ZM13.3327 24.5833C13.0012 24.5833 12.6833 24.4516 12.4488 24.2172C12.2144 23.9828 12.0827 23.6649 12.0827 23.3333C12.0827 23.0018 12.2144 22.6839 12.4488 22.4494C12.6833 22.215 13.0012 22.0833 13.3327 22.0833H24.9994C25.3309 22.0833 25.6489 22.215 25.8833 22.4494C26.1177 22.6839 26.2494 23.0018 26.2494 23.3333C26.2494 23.6649 26.1177 23.9828 25.8833 24.2172C25.6489 24.4516 25.3309 24.5833 24.9994 24.5833H13.3327ZM13.3327 17.9167C13.0012 17.9167 12.6833 17.785 12.4488 17.5505C12.2144 17.3161 12.0827 16.9982 12.0827 16.6667C12.0827 16.3351 12.2144 16.0172 12.4488 15.7828C12.6833 15.5484 13.0012 15.4167 13.3327 15.4167H21.6661C21.9976 15.4167 22.3155 15.5484 22.5499 15.7828C22.7844 16.0172 22.9161 16.3351 22.9161 16.6667C22.9161 16.9982 22.7844 17.3161 22.5499 17.5505C22.3155 17.785 21.9976 17.9167 21.6661 17.9167H13.3327Z" fill="white"/>
</svg>
