<svg viewBox="0 0 36 36" fill="none" xmlns="http://www.w3.org/2000/svg">
<path d="M19.6099 18L24.4699 13.14C24.6338 12.9487 24.7194 12.7026 24.7096 12.4509C24.6999 12.1993 24.5956 11.9605 24.4175 11.7824C24.2394 11.6043 24.0007 11.5 23.749 11.4903C23.4973 11.4806 23.2512 11.5662 23.0599 11.73L18.1999 16.54L13.3099 11.65C13.1186 11.4862 12.8726 11.4006 12.6209 11.4103C12.3692 11.42 12.1305 11.5243 11.9524 11.7024C11.7743 11.8805 11.6699 12.1193 11.6602 12.3709C11.6505 12.6226 11.7361 12.8687 11.8999 13.06L16.7799 18L11.9999 22.72C11.8953 22.8096 11.8102 22.92 11.7502 23.044C11.6902 23.1681 11.6565 23.3032 11.6511 23.4409C11.6458 23.5787 11.669 23.716 11.7193 23.8443C11.7696 23.9727 11.8458 24.0892 11.9433 24.1867C12.0407 24.2841 12.1573 24.3604 12.2856 24.4106C12.4139 24.4609 12.5513 24.4841 12.689 24.4788C12.8267 24.4735 12.9618 24.4398 13.0859 24.3797C13.21 24.3197 13.3203 24.2347 13.4099 24.13L18.1799 19.36L22.9199 24.1C23.1112 24.2638 23.3573 24.3494 23.609 24.3397C23.8607 24.33 24.0994 24.2257 24.2775 24.0476C24.4556 23.8695 24.5599 23.6307 24.5696 23.3791C24.5794 23.1274 24.4938 22.8813 24.3299 22.69L19.6099 18Z" fill="white"/>
<path d="M18 34C14.8355 34 11.7421 33.0616 9.11088 31.3035C6.4797 29.5454 4.42894 27.0466 3.21793 24.1229C2.00693 21.1993 1.69008 17.9823 2.30744 14.8786C2.92481 11.7749 4.44866 8.92394 6.6863 6.6863C8.92394 4.44866 11.7749 2.92481 14.8786 2.30744C17.9823 1.69008 21.1993 2.00693 24.1229 3.21793C27.0466 4.42894 29.5454 6.4797 31.3035 9.11088C33.0616 11.7421 34 14.8355 34 18C34 22.2435 32.3143 26.3131 29.3137 29.3137C26.3131 32.3143 22.2435 34 18 34ZM18 4.00001C15.2311 4.00001 12.5243 4.82109 10.222 6.35943C7.91974 7.89777 6.12532 10.0843 5.06569 12.6424C4.00607 15.2006 3.72882 18.0155 4.26901 20.7313C4.80921 23.447 6.14258 25.9416 8.10051 27.8995C10.0584 29.8574 12.553 31.1908 15.2687 31.731C17.9845 32.2712 20.7994 31.9939 23.3576 30.9343C25.9157 29.8747 28.1022 28.0803 29.6406 25.778C31.1789 23.4757 32 20.7689 32 18C32 14.287 30.525 10.726 27.8995 8.10051C25.274 5.475 21.713 4.00001 18 4.00001Z" fill="white"/>
</svg>
