<svg viewBox="0 0 35 33" fill="none" xmlns="http://www.w3.org/2000/svg">
<path d="M10.8093 30.8684C8.28392 32.0967 5.48659 32.6595 2.68265 32.5034C2.20765 32.5034 1.70932 32.4934 1.20432 32.4734C0.974547 32.4664 0.751306 32.3953 0.559854 32.268C0.368402 32.1408 0.21638 31.9625 0.120988 31.7534C0.0216662 31.5463 -0.0177046 31.3156 0.00733249 31.0873C0.0323696 30.859 0.120814 30.6423 0.262654 30.4617C1.81244 28.6018 2.98536 26.4581 3.71599 24.15C1.98273 21.0332 1.32286 17.4327 1.83809 13.9038C2.35332 10.3749 4.01506 7.11338 6.5671 4.6222C9.11914 2.13102 12.4198 0.54847 15.9601 0.118543C19.5005 -0.311384 23.0839 0.435184 26.158 2.24314C29.2321 4.05111 31.6262 6.82006 32.9711 10.1231C34.316 13.4262 34.537 17.0799 33.6001 20.521C32.6633 23.9621 30.6205 26.9995 27.7867 29.1648C24.953 31.3302 21.4857 32.5033 17.9193 32.5034C15.4554 32.5095 13.023 31.9502 10.8093 30.8684ZM11.3477 28.3367C14.2715 29.9272 17.6731 30.4027 20.9211 29.675C24.169 28.9472 27.0425 27.0656 29.0081 24.3795C30.9737 21.6935 31.8978 18.3854 31.6089 15.0695C31.32 11.7536 29.8377 8.65521 27.4372 6.34953C25.0367 4.04386 21.8811 2.68756 18.5562 2.53247C15.2314 2.37738 11.9632 3.43401 9.35851 5.50621C6.75379 7.57841 4.98948 10.5254 4.39315 13.8C3.79682 17.0746 4.40899 20.4543 6.11599 23.3117C6.27664 23.5793 6.33134 23.8974 6.26932 24.2034C5.77294 26.2774 4.89033 28.2394 3.66765 29.9867C5.89303 30.0608 8.09514 29.5143 10.0277 28.4084C10.2379 28.2602 10.4888 28.181 10.746 28.1817C10.9563 28.1823 11.1632 28.2356 11.3477 28.3367ZM11.2527 20.8367C10.9211 20.8367 10.6032 20.705 10.3688 20.4706C10.1343 20.2361 10.0027 19.9182 10.0027 19.5867C10.0027 19.2552 10.1343 18.9372 10.3688 18.7028C10.6032 18.4684 10.9211 18.3367 11.2527 18.3367H22.9193C23.2508 18.3367 23.5688 18.4684 23.8032 18.7028C24.0376 18.9372 24.1693 19.2552 24.1693 19.5867C24.1693 19.9182 24.0376 20.2361 23.8032 20.4706C23.5688 20.705 23.2508 20.8367 22.9193 20.8367H11.2527ZM11.2527 14.17C10.9211 14.17 10.6032 14.0383 10.3688 13.8039C10.1343 13.5695 10.0027 13.2515 10.0027 12.92C10.0027 12.5885 10.1343 12.2706 10.3688 12.0361C10.6032 11.8017 10.9211 11.67 11.2527 11.67H19.586C19.9175 11.67 20.2354 11.8017 20.4699 12.0361C20.7043 12.2706 20.836 12.5885 20.836 12.92C20.836 13.2515 20.7043 13.5695 20.4699 13.8039C20.2354 14.0383 19.9175 14.17 19.586 14.17H11.2527Z" fill="white"/>
</svg>
