<svg viewBox="0 0 40 40" fill="none" xmlns="http://www.w3.org/2000/svg">
<path d="M39.9999 28.2478C39.9999 25.9072 39.299 23.6471 37.9727 21.7119C37.0188 20.3199 35.7904 19.164 34.3669 18.305C36.0429 16.7178 37.0915 14.4745 37.0915 11.9895C37.0915 7.19095 33.1876 3.28699 28.3892 3.28699C25.5438 3.28699 22.8785 4.69419 21.2595 7.0042C20.8481 6.94428 20.4278 6.91196 19.9999 6.91196C19.5721 6.91196 19.1519 6.94439 18.7405 7.0042C17.1214 4.69419 14.4561 3.28699 11.6108 3.28699C6.81234 3.28699 2.90837 7.19095 2.90837 11.9895C2.90837 14.4745 3.95701 16.7178 5.63312 18.305C4.20948 19.1639 2.98108 20.3199 2.02726 21.7118C0.701025 23.6471 0 25.9072 0 28.2478V33.0883H8.38922V36.7132H31.6109V33.0883H40V28.2478H39.9999ZM28.3892 5.43484C32.0034 5.43484 34.9438 8.37522 34.9438 11.9896C34.9438 15.6039 32.0034 18.5443 28.3892 18.5443C28.3244 18.5443 28.2597 18.5433 28.1948 18.5414C28.1997 18.5276 28.2038 18.5136 28.2086 18.4998C28.3205 18.1826 28.4139 17.8568 28.4887 17.524C28.494 17.5004 28.5 17.4769 28.505 17.4532C28.5245 17.3634 28.5415 17.2728 28.5582 17.182C28.566 17.139 28.5741 17.0962 28.5813 17.0531C28.5948 16.972 28.6071 16.8906 28.6183 16.8089C28.6262 16.7521 28.6333 16.6953 28.64 16.6384C28.6485 16.5662 28.6568 16.4939 28.6635 16.4212C28.6704 16.347 28.6756 16.2727 28.6805 16.1983C28.6844 16.1397 28.6892 16.0812 28.6919 16.0223C28.6978 15.8959 28.7011 15.7693 28.7016 15.6426C28.7016 15.6332 28.7023 15.6241 28.7023 15.6146C28.7023 15.6096 28.7019 15.6045 28.7019 15.5995C28.7017 15.4701 28.6979 15.3414 28.6921 15.2132C28.6904 15.176 28.6881 15.1388 28.686 15.1016C28.6796 14.9926 28.6714 14.8842 28.6612 14.7763C28.6588 14.7518 28.6569 14.7273 28.6544 14.7029C28.3299 11.5662 26.3483 8.88144 23.4896 7.63962C24.7215 6.25571 26.5032 5.43484 28.3892 5.43484ZM17.732 9.46424C17.753 9.45661 17.7741 9.44942 17.7951 9.4419C17.8603 9.4186 17.926 9.39647 17.992 9.3751C18.0421 9.3591 18.0924 9.34364 18.1431 9.32882C18.1799 9.31797 18.2169 9.30756 18.2539 9.29725C18.3201 9.2791 18.3866 9.26138 18.4537 9.24517C18.9498 9.12468 19.4672 9.05928 19.9997 9.05928C20.5327 9.05971 21.0503 9.12521 21.5465 9.2457C21.6132 9.26181 21.6793 9.27942 21.7451 9.29746C21.7827 9.30788 21.8203 9.3184 21.8575 9.32946C21.9076 9.34418 21.9574 9.35943 22.0069 9.37521C22.0738 9.3968 22.1403 9.41913 22.2062 9.44276C22.2265 9.44995 22.2468 9.45683 22.267 9.46424C24.4591 10.2749 26.1027 12.2258 26.4747 14.5934C26.4776 14.6123 26.4804 14.6313 26.4831 14.6503C26.4951 14.7305 26.505 14.8114 26.514 14.8925C26.5172 14.9223 26.5206 14.9521 26.5235 14.982C26.5306 15.056 26.5359 15.1305 26.5406 15.2053C26.5425 15.2373 26.5452 15.2692 26.5467 15.3013C26.5512 15.3967 26.5537 15.4928 26.554 15.5893C26.554 15.5977 26.5546 15.6058 26.5546 15.6142C26.5546 15.6181 26.5543 15.622 26.5543 15.6259C26.5541 15.7193 26.5513 15.8121 26.5473 15.9046C26.546 15.9337 26.5447 15.9628 26.543 15.9918C26.5379 16.0811 26.5313 16.17 26.5227 16.2583C26.5193 16.2925 26.5148 16.3265 26.511 16.3606C26.5044 16.4177 26.4971 16.4747 26.4892 16.5314C26.4829 16.5755 26.4767 16.6198 26.4696 16.6637C26.4588 16.7306 26.4467 16.7971 26.4339 16.8633C26.4224 16.9223 26.4098 16.981 26.3967 17.0397C26.3889 17.075 26.3807 17.1103 26.3722 17.1454C26.3513 17.2325 26.3283 17.3191 26.3038 17.4053C26.294 17.4396 26.2849 17.4741 26.2746 17.508C26.2597 17.5574 26.2436 17.6064 26.2276 17.6553C26.2147 17.6945 26.2015 17.7335 26.1878 17.7724C26.1724 17.8165 26.1571 17.8608 26.1408 17.9046C26.113 17.979 26.0838 18.0528 26.0534 18.1259C26.0398 18.1585 26.0255 18.1909 26.0114 18.2234C25.9849 18.2843 25.9576 18.3449 25.9292 18.4048C25.9259 18.4119 25.9226 18.419 25.9193 18.426C25.909 18.4473 25.899 18.4687 25.8885 18.4899C25.8568 18.5548 25.8237 18.6189 25.7897 18.6825C25.7765 18.7072 25.7638 18.7322 25.7502 18.7568C25.7494 18.7584 25.7485 18.7599 25.7476 18.7614C25.7105 18.8291 25.6717 18.8956 25.6323 18.9618C25.6166 18.988 25.6012 19.0143 25.5852 19.0402C25.5422 19.1099 25.4981 19.1788 25.4527 19.2467C25.4244 19.2889 25.3949 19.3302 25.3657 19.3718C25.3409 19.407 25.3162 19.4424 25.2907 19.477C25.2577 19.5219 25.2241 19.5663 25.19 19.6104C25.1668 19.6404 25.1434 19.6701 25.1198 19.6998C25.0837 19.7449 25.0473 19.7898 25.0101 19.8339C24.987 19.8613 24.9633 19.8881 24.9398 19.9151C24.9011 19.9594 24.8626 20.0039 24.8228 20.0472C24.7992 20.0728 24.7747 20.0975 24.7507 20.1229C24.686 20.1911 24.6199 20.2577 24.5524 20.3231C24.5124 20.3619 24.4725 20.4008 24.4315 20.4385C24.4032 20.4646 24.3741 20.4899 24.3452 20.5156C24.2981 20.5574 24.2508 20.5987 24.2026 20.6391C24.1781 20.6596 24.1534 20.6799 24.1286 20.7001C24.0703 20.7475 24.0112 20.794 23.9512 20.8396C23.9348 20.8519 23.9187 20.8645 23.9023 20.8767C22.8112 21.6878 21.4607 22.1686 19.9998 22.1686C18.5388 22.1686 17.1881 21.6877 16.0971 20.8764C16.0809 20.8644 16.0652 20.852 16.0492 20.8399C15.9889 20.7943 15.9295 20.7474 15.871 20.6998C15.8464 20.6797 15.8218 20.6596 15.7976 20.6392C15.7491 20.5986 15.7017 20.557 15.6544 20.5152C15.6257 20.4896 15.5967 20.4645 15.5685 20.4385C15.5274 20.4007 15.4874 20.3617 15.4473 20.3229C15.3795 20.2573 15.3132 20.1904 15.2484 20.122C15.2246 20.097 15.2004 20.0726 15.1771 20.0473C15.1372 20.0039 15.0987 19.9593 15.06 19.915C15.0365 19.888 15.0129 19.8613 14.9898 19.8339C14.9525 19.7898 14.9162 19.7449 14.8801 19.6999C14.8565 19.6702 14.833 19.6405 14.8098 19.6104C14.7758 19.5664 14.7422 19.522 14.7092 19.4771C14.6837 19.4424 14.6589 19.4069 14.6341 19.3716C14.6049 19.3301 14.5755 19.2889 14.5473 19.2468C14.5017 19.1786 14.4574 19.1095 14.4143 19.0395C14.3985 19.0139 14.3833 18.988 14.3678 18.9621C14.3277 18.895 14.2885 18.8276 14.2509 18.7589C14.237 18.7337 14.2239 18.708 14.2103 18.6827C14.1763 18.6189 14.1431 18.5546 14.1112 18.4896C14.0999 18.4665 14.0888 18.4432 14.0777 18.42C14.076 18.4165 14.0744 18.4129 14.0728 18.4094C14.0431 18.3467 14.0146 18.2833 13.9868 18.2194C13.9736 18.189 13.9602 18.1588 13.9475 18.1283C13.9163 18.0535 13.8866 17.9781 13.8581 17.9021C13.8428 17.8611 13.8286 17.8196 13.8141 17.7783C13.7992 17.7359 13.7848 17.6931 13.7707 17.6503C13.7556 17.6039 13.7403 17.5575 13.7262 17.5109C13.705 17.4412 13.685 17.3711 13.6662 17.3005C13.653 17.251 13.6411 17.2011 13.629 17.1512C13.6195 17.112 13.6104 17.0729 13.6017 17.0334C13.591 16.9851 13.5801 16.9369 13.5704 16.8884C13.5555 16.8128 13.5419 16.7367 13.5296 16.6603C13.523 16.619 13.5172 16.5777 13.5113 16.5365C13.5026 16.4753 13.4947 16.4139 13.4878 16.3523C13.4843 16.3219 13.4803 16.2915 13.4772 16.2611C13.4683 16.1706 13.4616 16.0794 13.4564 15.9879C13.4549 15.9616 13.4537 15.9353 13.4525 15.909C13.4481 15.8112 13.445 15.713 13.445 15.6142C13.445 15.5083 13.448 15.4032 13.4531 15.2985C13.4545 15.27 13.4568 15.2418 13.4584 15.2134C13.4632 15.1348 13.4689 15.0564 13.4764 14.9785C13.479 14.9513 13.4821 14.9242 13.485 14.8972C13.4942 14.8128 13.5046 14.7288 13.5171 14.6454C13.5194 14.6291 13.5218 14.6128 13.5244 14.5966C13.8952 12.2276 15.5391 10.2754 17.732 9.46424ZM5.05612 11.9896C5.05612 8.37533 7.9965 5.43484 11.6108 5.43484C13.4969 5.43484 15.2786 6.25582 16.5104 7.6394C13.6508 8.88166 11.6687 11.5677 11.3452 14.7057C11.3429 14.727 11.3413 14.7483 11.3393 14.7697C11.3285 14.8815 11.32 14.9937 11.3136 15.1066C11.3117 15.141 11.3095 15.1752 11.3079 15.2097C11.3018 15.344 11.2976 15.4788 11.2976 15.6145C11.2976 15.7516 11.3016 15.8883 11.308 16.0249C11.3106 16.0798 11.3151 16.1343 11.3186 16.1889C11.3239 16.2676 11.3293 16.3462 11.3366 16.4246C11.343 16.4942 11.351 16.5635 11.3591 16.6328C11.3662 16.6931 11.3737 16.7533 11.3821 16.8134C11.3931 16.8923 11.4049 16.9709 11.4179 17.0492C11.4257 17.0957 11.4343 17.1421 11.4428 17.1885C11.4589 17.2761 11.4753 17.3635 11.494 17.4502C11.5002 17.4788 11.5073 17.5071 11.5138 17.5356C11.5867 17.8581 11.6772 18.1738 11.785 18.4817C11.7919 18.5015 11.7979 18.5216 11.8049 18.5414C11.7401 18.5433 11.6753 18.5443 11.6106 18.5443C7.9965 18.5442 5.05612 15.6038 5.05612 11.9896ZM10.1898 25.6816C10.1662 25.7188 10.1436 25.7567 10.1204 25.7942C10.0713 25.8735 10.0227 25.9529 9.97565 26.0332C9.94934 26.0779 9.924 26.123 9.89844 26.1681C9.85613 26.2426 9.81435 26.3172 9.77376 26.3925C9.7482 26.4398 9.72307 26.4874 9.69816 26.535C9.65907 26.6098 9.62095 26.6851 9.58358 26.7606C9.56006 26.8081 9.53665 26.8554 9.51388 26.9031C9.47587 26.9827 9.43925 27.0629 9.40306 27.1432C9.38341 27.1869 9.36322 27.2303 9.34421 27.2742C9.30233 27.3704 9.26238 27.4674 9.22319 27.5647C9.2117 27.5932 9.19945 27.6213 9.18828 27.6498C9.13856 27.7762 9.09099 27.9034 9.04589 28.0313C9.03558 28.0606 9.02635 28.0903 9.01614 28.1196C8.98221 28.2182 8.94913 28.3171 8.91788 28.4164C8.9036 28.462 8.89039 28.5079 8.87665 28.5536C8.85141 28.6378 8.8266 28.7221 8.8033 28.807C8.78945 28.8574 8.77624 28.908 8.76303 28.9587C8.74177 29.0401 8.72136 29.1217 8.70203 29.2037C8.68968 29.2555 8.67766 29.3074 8.66617 29.3594C8.6477 29.4424 8.63041 29.5257 8.61376 29.6092C8.60378 29.6593 8.59347 29.7095 8.58412 29.7598C8.56726 29.8507 8.55212 29.9419 8.53741 30.0333C8.53054 30.0763 8.52291 30.119 8.51647 30.162C8.4965 30.2962 8.47835 30.4308 8.4631 30.566C8.46288 30.5676 8.46278 30.5692 8.46267 30.5708C8.44882 30.6938 8.4369 30.8169 8.42691 30.9405H2.14775V28.2478C2.14775 24.5689 4.26264 21.2662 7.57597 19.6964C8.783 20.3309 10.1551 20.692 11.6107 20.692C12.0317 20.692 12.4539 20.6609 12.873 20.5992C12.9383 20.6923 13.0046 20.7845 13.0733 20.8749C13.0965 20.9053 13.1206 20.9349 13.1442 20.965C13.2121 21.0518 13.2809 21.1376 13.352 21.2217C13.3811 21.2561 13.411 21.2899 13.4406 21.3239C13.5072 21.4004 13.5748 21.4758 13.644 21.5498C13.6803 21.5888 13.7172 21.6272 13.7542 21.6655C13.8174 21.7307 13.8815 21.7949 13.9467 21.8581C13.9712 21.8819 13.9943 21.907 14.019 21.9305C13.9257 21.9869 13.8332 22.0447 13.7416 22.1036C13.7267 22.1132 13.7121 22.1233 13.6973 22.1329C13.6057 22.1924 13.515 22.2532 13.4253 22.3152C13.3942 22.3367 13.3633 22.3584 13.3324 22.38C13.2524 22.4364 13.1732 22.4938 13.0947 22.5521C13.0699 22.5706 13.0448 22.5886 13.0202 22.6073C12.9203 22.6828 12.8216 22.7597 12.7242 22.8383C12.703 22.8555 12.6821 22.8732 12.6609 22.8906C12.5833 22.954 12.5066 23.0186 12.4307 23.0841C12.4013 23.1094 12.3721 23.135 12.3429 23.1606C12.267 23.2275 12.192 23.2954 12.1178 23.3643C12.0985 23.3822 12.0787 23.3998 12.0595 23.4179C11.9684 23.5036 11.8788 23.5909 11.7904 23.6798C11.7674 23.7028 11.745 23.7264 11.7222 23.7496C11.6545 23.8186 11.5876 23.8884 11.5216 23.9592C11.4954 23.9873 11.4692 24.0154 11.4432 24.0439C11.3689 24.1251 11.2957 24.2074 11.2236 24.2908C11.2123 24.3039 11.2006 24.3166 11.1893 24.3298C11.1072 24.4257 11.0269 24.5234 10.9476 24.6221C10.9255 24.6496 10.9039 24.6775 10.8821 24.7053C10.8225 24.781 10.7638 24.8575 10.706 24.9347C10.6837 24.9645 10.6612 24.9942 10.6392 25.0242C10.5636 25.1273 10.489 25.2313 10.4165 25.3371C10.3386 25.4507 10.2632 25.5657 10.1898 25.6816ZM10.537 34.5655V33.0884V31.8728C10.537 31.7536 10.5392 31.6348 10.5436 31.5164C10.545 31.4774 10.5481 31.4387 10.5501 31.3998C10.5539 31.3208 10.5576 31.2417 10.5634 31.1629C10.5669 31.1152 10.5723 31.0678 10.5766 31.0201C10.5828 30.9507 10.5884 30.8813 10.5961 30.8123C10.6018 30.7619 10.6092 30.7117 10.6157 30.6613C10.6241 30.5957 10.6319 30.53 10.6416 30.4647C10.6494 30.4127 10.6588 30.3612 10.6674 30.3094C10.678 30.2465 10.6877 30.1834 10.6995 30.1207C10.7095 30.0678 10.7211 30.0154 10.732 29.9627C10.7444 29.9019 10.7564 29.8409 10.77 29.7805C10.782 29.7273 10.7958 29.6746 10.8087 29.6215C10.8232 29.5624 10.837 29.5031 10.8526 29.4443C10.8668 29.3909 10.8824 29.3381 10.8975 29.2852C10.9138 29.2275 10.9297 29.1697 10.9471 29.1125C10.9633 29.0592 10.9811 29.0064 10.9982 28.9534C11.0164 28.8973 11.0342 28.841 11.0534 28.7853C11.0716 28.7325 11.0913 28.6803 11.1104 28.628C11.1306 28.5728 11.1504 28.5173 11.1715 28.4626C11.1917 28.4105 11.2132 28.3591 11.2341 28.3073C11.2561 28.2533 11.2778 28.1989 11.3008 28.1454C11.323 28.0937 11.3465 28.0426 11.3695 27.9915C11.3933 27.9387 11.4168 27.8858 11.4415 27.8336C11.4657 27.7826 11.491 27.7322 11.516 27.6817C11.5416 27.6301 11.5668 27.5785 11.5932 27.5275C11.6193 27.4772 11.6465 27.4276 11.6734 27.3779C11.7007 27.3275 11.7277 27.2771 11.7558 27.2273C11.7837 27.1779 11.8127 27.1293 11.8414 27.0804C11.8704 27.0312 11.8992 26.9819 11.9291 26.9332C11.9589 26.8847 11.9896 26.8371 12.0202 26.7892C12.0509 26.7412 12.0814 26.6932 12.113 26.6457C12.1446 26.5982 12.177 26.5514 12.2094 26.5046C12.2417 26.4579 12.274 26.4112 12.307 26.365C12.3403 26.3186 12.3746 26.2728 12.4088 26.227C12.4428 26.1816 12.4766 26.1361 12.5113 26.0914C12.5463 26.0461 12.5822 26.0016 12.618 25.9569C12.6536 25.9127 12.6892 25.8685 12.7255 25.8249C12.7621 25.7811 12.7995 25.7378 12.8369 25.6947C12.8741 25.6516 12.9115 25.6085 12.9496 25.566C12.9878 25.5235 13.0267 25.4816 13.0656 25.4397C13.1045 25.398 13.1434 25.3564 13.183 25.3154C13.2227 25.2741 13.2632 25.2335 13.3038 25.1931C13.3443 25.1526 13.385 25.1123 13.4262 25.0725C13.4674 25.0328 13.5091 24.9937 13.5511 24.9548C13.5932 24.9157 13.6355 24.8767 13.6784 24.8383C13.7211 24.8 13.7643 24.7623 13.8078 24.7249C13.8514 24.6872 13.8953 24.6497 13.9396 24.6127C13.9838 24.576 14.0283 24.5398 14.0732 24.5038C14.1184 24.4676 14.164 24.4316 14.2099 24.396C14.2554 24.361 14.3012 24.3264 14.3473 24.2921C14.3941 24.2572 14.4412 24.2227 14.4889 24.1887C14.5355 24.1553 14.5826 24.1224 14.6299 24.0898C14.6785 24.0564 14.7272 24.0234 14.7764 23.9909C14.8242 23.9593 14.8724 23.928 14.9208 23.8972C14.971 23.8653 15.0215 23.8339 15.0723 23.8029C15.1212 23.7731 15.1705 23.7435 15.2201 23.7146C15.2717 23.6844 15.3237 23.6546 15.376 23.6253C15.4261 23.5972 15.4766 23.5694 15.5274 23.5421C15.5805 23.5135 15.6341 23.4855 15.688 23.4578C15.7391 23.4315 15.7905 23.4056 15.8422 23.3801C15.8829 23.3602 15.9241 23.3408 15.9652 23.3214C17.1721 23.9559 18.5444 24.3169 19.9999 24.3169C21.4556 24.3169 22.8278 23.9559 24.0347 23.3214C24.0755 23.3407 24.1163 23.36 24.1567 23.3797C24.2091 23.4055 24.261 23.4317 24.3127 23.4582C24.366 23.4856 24.419 23.5133 24.4717 23.5415C24.523 23.5691 24.574 23.5973 24.6247 23.6257C24.6763 23.6547 24.7277 23.6841 24.7786 23.7139C24.8289 23.7433 24.8789 23.7733 24.9285 23.8036C24.9786 23.8342 25.0284 23.8651 25.0778 23.8966C25.1269 23.9278 25.1757 23.9594 25.2241 23.9915C25.2728 24.0236 25.321 24.0563 25.3689 24.0892C25.4167 24.1222 25.4642 24.1554 25.5114 24.1891C25.5585 24.2228 25.6051 24.257 25.6515 24.2915C25.6981 24.3261 25.7444 24.361 25.7903 24.3965C25.8358 24.4317 25.8809 24.4673 25.9258 24.5033C25.9709 24.5395 26.0158 24.5759 26.0603 24.6128C26.1044 24.6496 26.148 24.6868 26.1914 24.7243C26.2351 24.762 26.2786 24.7999 26.3215 24.8385C26.364 24.8766 26.406 24.9153 26.4478 24.954C26.4901 24.9933 26.5323 25.0328 26.5739 25.0729C26.6148 25.1123 26.6551 25.1523 26.6951 25.1923C26.7359 25.2331 26.7767 25.274 26.8168 25.3155C26.8561 25.3563 26.8949 25.3975 26.9334 25.439C26.9727 25.4812 27.0119 25.5235 27.0504 25.5663C27.0882 25.6084 27.1252 25.6511 27.1622 25.6938C27.1998 25.7373 27.2375 25.7809 27.2744 25.8251C27.3106 25.8684 27.3459 25.9123 27.3812 25.9563C27.4173 26.0012 27.4534 26.0459 27.4886 26.0915C27.5232 26.136 27.5568 26.1812 27.5905 26.2264C27.6249 26.2724 27.6593 26.3185 27.6928 26.3651C27.7257 26.4109 27.7578 26.4576 27.7899 26.504C27.8225 26.5511 27.8551 26.5981 27.8868 26.6458C27.9182 26.6929 27.9484 26.7406 27.9789 26.7883C28.0098 26.8365 28.0407 26.8846 28.0707 26.9334C28.1003 26.9816 28.1289 27.0306 28.1576 27.0793C28.1866 27.1285 28.2158 27.1776 28.2439 27.2273C28.2719 27.2769 28.2987 27.3272 28.3259 27.3772C28.353 27.4272 28.3802 27.477 28.4063 27.5273C28.4328 27.5782 28.4579 27.6299 28.4834 27.6813C28.5085 27.7319 28.5339 27.7824 28.5581 27.8335C28.5828 27.8857 28.6062 27.9384 28.6298 27.991C28.653 28.0425 28.6765 28.0936 28.6988 28.1455C28.7216 28.1986 28.743 28.2524 28.7649 28.3061C28.7862 28.3583 28.8079 28.4103 28.8282 28.4629C28.8492 28.5173 28.8689 28.5724 28.8889 28.6274C28.9082 28.6799 28.9278 28.7322 28.9461 28.7852C28.9654 28.8411 28.9832 28.8977 29.0015 28.9541C29.0186 29.0068 29.0363 29.0593 29.0524 29.1125C29.0699 29.1697 29.0857 29.2276 29.1021 29.2853C29.1171 29.3382 29.1328 29.3909 29.147 29.4443C29.1626 29.5031 29.1764 29.5623 29.1909 29.6215C29.2039 29.6744 29.2175 29.7273 29.2296 29.7805C29.2432 29.8409 29.255 29.9018 29.2676 29.9625C29.2784 30.0152 29.29 30.0677 29.3 30.1207C29.3117 30.1828 29.3214 30.2454 29.3319 30.3079C29.3406 30.3602 29.3503 30.4122 29.3581 30.4648C29.3678 30.5296 29.3755 30.5949 29.3839 30.6599C29.3904 30.7107 29.398 30.7612 29.4037 30.8122C29.4114 30.8812 29.417 30.9506 29.4232 31.02C29.4275 31.0677 29.4329 31.115 29.4364 31.1628C29.4423 31.2416 29.4459 31.3208 29.4497 31.4C29.4517 31.4387 29.4548 31.4774 29.4562 31.5162C29.4606 31.6347 29.4628 31.7535 29.4628 31.8727V33.0882V34.5655H10.537ZM31.5735 30.9405C31.5525 30.6789 31.5222 30.419 31.4837 30.1606C31.4776 30.1197 31.4703 30.0791 31.4638 30.0383C31.4488 29.9447 31.4333 29.8514 31.416 29.7584C31.4069 29.7095 31.3969 29.6607 31.3871 29.6118C31.3702 29.5269 31.3526 29.4422 31.3338 29.3578C31.3224 29.3069 31.3106 29.256 31.2986 29.2053C31.279 29.1224 31.2583 29.0398 31.2369 28.9574C31.2239 28.9075 31.2109 28.8577 31.1971 28.8078C31.1736 28.7221 31.1485 28.6369 31.1229 28.5517C31.1094 28.5068 31.0965 28.4618 31.0824 28.417C31.0508 28.3162 31.0173 28.2159 30.9828 28.1158C30.9731 28.0879 30.9643 28.0597 30.9544 28.0317C30.9091 27.9034 30.8615 27.7758 30.8116 27.649C30.8009 27.6218 30.7892 27.595 30.7782 27.5678C30.7386 27.4694 30.698 27.3711 30.6556 27.2736C30.6368 27.2303 30.6169 27.1876 30.5976 27.1445C30.5611 27.0633 30.5241 26.9825 30.4857 26.9021C30.4632 26.8551 30.44 26.8084 30.417 26.7617C30.3793 26.6854 30.3407 26.6095 30.3013 26.534C30.2766 26.4868 30.2518 26.4397 30.2265 26.3928C30.1856 26.3173 30.1438 26.2423 30.1012 26.1676C30.0757 26.1227 30.0504 26.0778 30.0243 26.0333C29.9771 25.9526 29.9282 25.8728 29.8788 25.7931C29.8559 25.756 29.8335 25.7185 29.8101 25.6817C29.7366 25.5658 29.6612 25.4508 29.5832 25.3371C29.5106 25.2312 29.436 25.1272 29.3604 25.0241C29.3385 24.9943 29.3161 24.9648 29.294 24.9351C29.2359 24.8575 29.177 24.7808 29.1171 24.7048C29.0956 24.6774 29.0742 24.6497 29.0523 24.6225C28.9729 24.5235 28.8923 24.4256 28.8099 24.3295C28.7992 24.317 28.7881 24.3049 28.7774 24.2924C28.7048 24.2083 28.6309 24.1254 28.556 24.0436C28.5303 24.0155 28.5044 23.9876 28.4784 23.9597C28.412 23.8885 28.3447 23.8182 28.2766 23.7488C28.2542 23.7259 28.2322 23.7028 28.2095 23.6802C28.1209 23.5913 28.0309 23.5036 27.9396 23.4177C27.9208 23.4 27.9015 23.3828 27.8826 23.3652C27.808 23.296 27.7326 23.2278 27.6563 23.1605C27.6274 23.135 27.5981 23.1096 27.5689 23.0843C27.4929 23.0187 27.4161 22.9541 27.3385 22.8906C27.3173 22.8733 27.2966 22.8556 27.2753 22.8384C27.178 22.7598 27.0794 22.6829 26.9796 22.6075C26.9547 22.5887 26.9293 22.5704 26.9043 22.5519C26.8261 22.4939 26.7474 22.4367 26.6677 22.3807C26.6365 22.3587 26.6052 22.3368 26.5739 22.3151C26.485 22.2538 26.3953 22.1936 26.3047 22.1348C26.2888 22.1245 26.2732 22.1137 26.2573 22.1035C26.1658 22.0448 26.0737 21.9871 25.9805 21.9308C26.0045 21.908 26.0271 21.8836 26.0508 21.8604C26.1174 21.796 26.1828 21.7305 26.2472 21.6639C26.2832 21.6267 26.3189 21.5895 26.3542 21.5517C26.4245 21.4765 26.493 21.3998 26.5607 21.3222C26.5895 21.2892 26.6183 21.2565 26.6466 21.2229C26.7186 21.1377 26.7887 21.0506 26.8575 20.9624C26.88 20.9336 26.9031 20.9053 26.9253 20.8762C26.9943 20.7854 27.061 20.6929 27.1266 20.5995C27.5456 20.661 27.9679 20.6921 28.3888 20.6921C29.8445 20.6921 31.2167 20.3311 32.4236 19.6965C35.737 21.2663 37.8518 24.569 37.8518 28.2479V30.9405H31.5735Z" fill="white"/>
</svg>
